<svg width="82" height="14" viewBox="0 0 82 14" fill="none" xmlns="http://www.w3.org/2000/svg">
<path d="M75.4279 10.7838C75.6062 11.056 75.8455 11.2765 76.1459 11.4455C76.4462 11.6144 76.7653 11.6989 77.1032 11.6989C77.4504 11.6989 77.7695 11.6144 78.0605 11.4455C78.3608 11.2859 78.6001 11.0654 78.7784 10.7838C78.9755 10.5022 79.2148 10.3615 79.4964 10.3615C79.6466 10.3615 79.792 10.4037 79.9328 10.4882C80.1393 10.6289 80.266 10.812 80.3129 11.0372C80.3692 11.2624 80.3317 11.4689 80.2003 11.6566C79.8812 12.1822 79.4448 12.5952 78.8911 12.8955C78.3373 13.2052 77.7414 13.3601 77.1032 13.3601C76.465 13.3601 75.8737 13.2052 75.3293 12.8955C74.785 12.5952 74.3439 12.1822 74.006 11.6566C73.884 11.4689 73.8465 11.2624 73.8934 11.0372C73.9497 10.812 74.0764 10.6289 74.2735 10.4882C74.433 10.4037 74.5738 10.3615 74.6958 10.3615C74.9962 10.3615 75.2402 10.5022 75.4279 10.7838ZM73.7808 6.53225V3.3647C73.7808 3.12068 73.8605 2.9189 74.0201 2.75935C74.189 2.59979 74.3908 2.52002 74.6254 2.52002C74.8601 2.52002 75.0572 2.60449 75.2167 2.77342C75.3856 2.93297 75.4701 3.13007 75.4701 3.3647V6.53225C75.4701 6.98274 75.6297 7.37223 75.9488 7.70072C76.2679 8.01982 76.6527 8.17937 77.1032 8.17937C77.563 8.17937 77.9525 8.01982 78.2716 7.70072C78.5907 7.37223 78.7503 6.98274 78.7503 6.53225V3.3647C78.7503 3.12068 78.8301 2.9189 78.9896 2.75935C79.1492 2.59979 79.3462 2.52002 79.5809 2.52002C79.8061 2.52002 79.9985 2.60449 80.1581 2.77342C80.327 2.93297 80.4115 3.13007 80.4115 3.3647V6.53225C80.4115 7.45201 80.0877 8.24038 79.4401 8.89735C78.7925 9.54494 78.0088 9.86873 77.0891 9.86873C76.1787 9.86873 75.3997 9.54494 74.7521 8.89735C74.1046 8.24038 73.7808 7.45201 73.7808 6.53225Z" fill="url(#paint0_linear_322_1092)"/>
<path d="M69.8612 9.86873C68.8476 9.86873 67.9841 9.51209 67.2709 8.7988C66.5576 8.07613 66.2009 7.2033 66.2009 6.1803C66.2009 5.16668 66.5576 4.30323 67.2709 3.58995C67.9841 2.87666 68.8476 2.52002 69.8612 2.52002C70.8466 2.52002 71.7148 2.87666 72.4656 3.58995C72.6252 3.7495 72.7049 3.94659 72.7049 4.18122C72.7049 4.40647 72.6252 4.60356 72.4656 4.7725C72.2873 4.93205 72.0902 5.01182 71.8743 5.01182C71.6209 5.01182 71.4238 4.92736 71.2831 4.75842C70.8983 4.37362 70.4243 4.18122 69.8612 4.18122C69.3168 4.18122 68.8476 4.37831 68.4534 4.7725C68.0592 5.16668 67.8621 5.63595 67.8621 6.1803C67.8621 6.73403 68.0545 7.20799 68.4393 7.60217C68.8335 7.98697 69.3075 8.17937 69.8612 8.17937C70.4055 8.17937 70.8795 7.98697 71.2831 7.60217C71.4332 7.43324 71.635 7.34877 71.8884 7.34877C72.1231 7.34877 72.3155 7.43324 72.4656 7.60217C72.6252 7.76172 72.7049 7.95882 72.7049 8.19345C72.7049 8.42808 72.6252 8.62987 72.4656 8.7988C71.7148 9.51209 70.8466 9.86873 69.8612 9.86873Z" fill="url(#paint1_linear_322_1092)"/>
<path d="M58.5205 5.82835C58.5205 4.92736 58.849 4.15307 59.506 3.50548C60.1629 2.84851 60.9466 2.52002 61.857 2.52002C62.758 2.52002 63.5323 2.84851 64.1798 3.50548C64.8368 4.15307 65.1653 4.92736 65.1653 5.82835V9.03813C65.1653 9.26338 65.0808 9.46047 64.9119 9.6294C64.7523 9.78895 64.56 9.86873 64.3347 9.86873C64.1001 9.86873 63.8983 9.78895 63.7293 9.6294C63.5698 9.46047 63.49 9.26338 63.49 9.03813V5.82835C63.49 5.37785 63.3258 4.99305 62.9973 4.67395C62.6782 4.34547 62.2981 4.18122 61.857 4.18122C61.4065 4.18122 61.017 4.34547 60.6885 4.67395C60.36 4.99305 60.1958 5.37785 60.1958 5.82835V9.03813C60.1958 9.26338 60.1113 9.46047 59.9424 9.6294C59.7828 9.78895 59.5857 9.86873 59.3511 9.86873C59.1259 9.86873 58.9288 9.78895 58.7598 9.6294C58.6003 9.46047 58.5205 9.26338 58.5205 9.03813V5.82835Z" fill="url(#paint2_linear_322_1092)"/>
<path d="M50.2537 6.1803C50.2537 5.16668 50.6103 4.30323 51.3236 3.58995C52.0463 2.87666 52.9191 2.52002 53.9421 2.52002C54.8337 2.52002 55.6174 2.81096 56.2931 3.39285C56.9688 3.96536 57.3771 4.68803 57.5179 5.56087C57.6117 5.93628 57.5789 6.23661 57.4193 6.46186C57.2692 6.67772 56.9782 6.78565 56.5465 6.78565H52.0416C52.173 7.1986 52.4123 7.53648 52.7595 7.79927C53.1068 8.05267 53.501 8.17937 53.9421 8.17937C54.4677 8.17937 54.9322 7.98697 55.3358 7.60217C55.5047 7.43324 55.7065 7.34877 55.9412 7.34877C56.1758 7.34877 56.3682 7.43324 56.5184 7.60217C56.6779 7.76172 56.7577 7.95882 56.7577 8.19345C56.7577 8.42808 56.6779 8.62987 56.5184 8.7988C56.1805 9.12729 55.7863 9.39008 55.3358 9.58717C54.8947 9.77488 54.4301 9.86873 53.9421 9.86873C52.9191 9.86873 52.0463 9.51209 51.3236 8.7988C50.6103 8.07613 50.2537 7.2033 50.2537 6.1803ZM55.8004 5.6031C55.6878 5.19015 55.4578 4.85227 55.1106 4.58948C54.7633 4.31731 54.3738 4.18122 53.9421 4.18122C53.501 4.18122 53.1068 4.31731 52.7595 4.58948C52.4123 4.85227 52.1776 5.19015 52.0556 5.6031H55.8004Z" fill="url(#paint3_linear_322_1092)"/>
<path d="M47.7328 6.1803C47.7328 5.63595 47.5357 5.16668 47.1416 4.7725C46.7568 4.37831 46.2969 4.18122 45.7619 4.18122C45.1988 4.18122 44.7201 4.37831 44.326 4.7725C43.9412 5.16668 43.7488 5.63595 43.7488 6.1803C43.7488 6.73403 43.9412 7.20799 44.326 7.60217C44.7201 7.98697 45.1988 8.17937 45.7619 8.17937C46.2969 8.17937 46.7568 7.98697 47.1416 7.60217C47.5357 7.20799 47.7328 6.73403 47.7328 6.1803ZM42.0735 6.1803C42.0735 5.16668 42.4301 4.30323 43.1434 3.58995C43.8661 2.87666 44.7389 2.52002 45.7619 2.52002C46.7661 2.52002 47.6202 2.87666 48.3241 3.58995C49.0374 4.30323 49.394 5.16668 49.394 6.1803C49.394 7.2033 49.0374 8.07613 48.3241 8.7988C47.6202 9.51209 46.7661 9.86873 45.7619 9.86873C44.7389 9.86873 43.8661 9.51209 43.1434 8.7988C42.4301 8.07613 42.0735 7.2033 42.0735 6.1803ZM44.0585 10.7838C44.2368 11.0654 44.4761 11.2859 44.7765 11.4455C45.0768 11.6144 45.4053 11.6989 45.7619 11.6989C46.0998 11.6989 46.4142 11.6144 46.7051 11.4455C46.9961 11.2859 47.2307 11.0654 47.409 10.7838C47.5967 10.5022 47.8408 10.3615 48.1411 10.3615C48.2819 10.3615 48.4226 10.4037 48.5634 10.4882C48.7605 10.6289 48.8872 10.812 48.9435 11.0372C48.9998 11.2624 48.9623 11.4689 48.8309 11.6566C48.5024 12.1822 48.066 12.5952 47.5217 12.8955C46.9773 13.2052 46.3907 13.3601 45.7619 13.3601C45.1049 13.3601 44.5043 13.2052 43.9599 12.8955C43.425 12.5952 42.9839 12.1822 42.6366 11.6566C42.5052 11.4689 42.4677 11.2624 42.524 11.0372C42.5803 10.812 42.707 10.6289 42.9041 10.4882C43.0636 10.4037 43.2091 10.3615 43.3405 10.3615C43.6314 10.3615 43.8708 10.5022 44.0585 10.7838Z" fill="url(#paint4_linear_322_1092)"/>
<path d="M38.3921 6.138L37.097 3.05492L35.7877 6.138H38.3921ZM32.761 8.58757L36.1819 0.56312C36.257 0.375413 36.3743 0.234633 36.5338 0.14078C36.7028 0.0469265 36.8905 0 37.097 0C37.2941 0 37.4771 0.0469265 37.646 0.14078C37.8149 0.234633 37.9323 0.375413 37.998 0.56312L41.4048 8.58757C41.5174 8.82221 41.5268 9.05684 41.433 9.29147C41.3391 9.5261 41.1749 9.68566 40.9402 9.77012C40.8276 9.83582 40.7056 9.86867 40.5742 9.86867C40.4053 9.86867 40.2457 9.81705 40.0956 9.71381C39.9454 9.61057 39.8328 9.47449 39.7577 9.30555L39.1805 7.98222H34.9993L34.4222 9.30555C34.3471 9.47449 34.2344 9.61057 34.0843 9.71381C33.9341 9.81705 33.7699 9.86867 33.5916 9.86867C33.4695 9.86867 33.3475 9.83582 33.2255 9.77012C32.9909 9.68566 32.8266 9.5261 32.7328 9.29147C32.6483 9.05684 32.6577 8.82221 32.761 8.58757Z" fill="url(#paint5_linear_322_1092)"/>
<path d="M15.5235 8.7988C14.8103 8.08552 14.4536 7.22207 14.4536 6.20845C14.4536 5.18545 14.8103 4.31731 15.5235 3.60402C16.2462 2.88135 17.1143 2.52002 18.128 2.52002C19.1416 2.52002 20.005 2.88135 20.7183 3.60402C21.4316 4.31731 21.7882 5.18076 21.7882 6.19437C21.7882 6.74811 21.9853 7.22207 22.3795 7.61625C22.7737 8.01044 23.2476 8.20753 23.8014 8.20753C24.3363 8.20753 24.7962 8.01044 25.181 7.61625C25.5752 7.22207 25.7723 6.74811 25.7723 6.19437C25.7723 5.64064 25.5799 5.16668 25.1951 4.7725C24.8103 4.37831 24.3457 4.18122 23.8014 4.18122C23.2476 4.18122 22.7737 4.38301 22.3795 4.78658C22.2106 4.1953 21.9337 3.69788 21.5489 3.29431C22.1965 2.77812 22.9473 2.52002 23.8014 2.52002C24.8056 2.52002 25.6644 2.88135 26.3776 3.60402C27.1003 4.31731 27.4616 5.18076 27.4616 6.19437C27.4616 7.20799 27.1003 8.07613 26.3776 8.7988C25.6644 9.51209 24.8056 9.86873 23.8014 9.86873C22.7784 9.86873 21.9102 9.51209 21.197 8.7988C20.4837 8.08552 20.127 7.21738 20.127 6.19437C20.127 5.64064 19.9299 5.16668 19.5358 4.7725C19.1416 4.37831 18.6723 4.18122 18.128 4.18122C17.5836 4.18122 17.1143 4.37831 16.7202 4.7725C16.326 5.16668 16.1289 5.64064 16.1289 6.19437C16.1289 6.73872 16.326 7.21268 16.7202 7.61625C17.1143 8.01044 17.5836 8.20753 18.128 8.20753C18.6911 8.20753 19.1603 8.00574 19.5358 7.60217C19.7235 8.19345 20.0003 8.68618 20.3664 9.08036C19.6812 9.60594 18.9351 9.86873 18.128 9.86873C17.1143 9.86873 16.2462 9.51209 15.5235 8.7988Z" fill="url(#paint6_linear_322_1092)"/>
<path d="M11.6033 3.36489C11.6033 3.13026 11.6831 2.93317 11.8426 2.77362C12.0116 2.60468 12.2086 2.52021 12.4339 2.52021C12.6779 2.52021 12.8797 2.59999 13.0392 2.75954C13.2082 2.91909 13.2926 3.12087 13.2926 3.36489V9.0524C13.2926 9.97216 12.9689 10.7558 12.3213 11.4034C11.6737 12.0604 10.89 12.3889 9.97025 12.3889C9.745 12.3889 9.5526 12.3044 9.39305 12.1355C9.22412 11.9759 9.13965 11.7788 9.13965 11.5442C9.13965 11.3096 9.21942 11.1078 9.37897 10.9389C9.53852 10.7793 9.73561 10.6995 9.97025 10.6995C10.4301 10.6995 10.8149 10.54 11.1246 10.2209C11.4437 9.90177 11.6033 9.51228 11.6033 9.0524V3.36489ZM11.4907 1.12649C11.4907 0.854318 11.5845 0.62907 11.7722 0.450749C11.9599 0.263043 12.1805 0.169189 12.4339 0.169189C12.7155 0.169189 12.9454 0.263043 13.1237 0.450749C13.3114 0.62907 13.4053 0.854318 13.4053 1.12649C13.4053 1.3799 13.3114 1.60045 13.1237 1.78816C12.936 1.97586 12.7061 2.06972 12.4339 2.06972C12.1805 2.06972 11.9599 1.97586 11.7722 1.78816C11.5845 1.60045 11.4907 1.3799 11.4907 1.12649Z" fill="url(#paint7_linear_322_1092)"/>
<path d="M8.34342 3.36489C8.34342 3.13026 8.42319 2.93317 8.58274 2.77362C8.75168 2.60468 8.94877 2.52021 9.17402 2.52021C9.41804 2.52021 9.61982 2.60468 9.77937 2.77362C9.94831 2.93317 10.0328 3.13026 10.0328 3.36489V9.03832C10.0328 9.26357 9.94831 9.46066 9.77937 9.6296C9.61043 9.78915 9.40865 9.86892 9.17402 9.86892C8.94877 9.86892 8.75168 9.78915 8.58274 9.6296C8.42319 9.46066 8.34342 9.26357 8.34342 9.03832V3.36489ZM8.51235 1.77408C8.33403 1.58637 8.24487 1.36113 8.24487 1.09834C8.24487 0.835547 8.33403 0.614992 8.51235 0.436671C8.69067 0.25835 8.91123 0.169189 9.17402 0.169189C9.44619 0.169189 9.67144 0.25835 9.84976 0.436671C10.0375 0.614992 10.1313 0.84024 10.1313 1.11241C10.1313 1.3752 10.0375 1.60045 9.84976 1.78816C9.67144 1.96648 9.44619 2.05564 9.17402 2.05564C8.92061 2.05564 8.70006 1.96179 8.51235 1.77408Z" fill="url(#paint8_linear_322_1092)"/>
<path d="M0 0.915069C0 0.661665 0.0891604 0.445803 0.267481 0.267481C0.455187 0.0891603 0.675742 0 0.929145 0C1.18255 0 1.39372 0.0891603 1.56265 0.267481C1.74097 0.436417 1.83013 0.65228 1.83013 0.915069V4.61758L5.67342 0.295638C5.84235 0.0985459 6.07229 0 6.36324 0C6.58848 0 6.78557 0.0703895 6.95451 0.211169C7.14221 0.380105 7.24545 0.591275 7.26422 0.844679C7.28299 1.09808 7.2126 1.31864 7.05305 1.50634L4.63165 4.20932L7.1516 8.48903C7.26422 8.70489 7.28769 8.93483 7.22199 9.17885C7.16568 9.42287 7.03428 9.61527 6.82781 9.75605C6.65887 9.83113 6.50871 9.86867 6.37731 9.86867C6.02067 9.86867 5.7485 9.71381 5.56079 9.4041L3.35055 5.67343L1.83013 7.39094V8.93952C1.83013 9.19293 1.74097 9.41348 1.56265 9.60119C1.38433 9.77951 1.17316 9.86867 0.929145 9.86867C0.675742 9.86867 0.455187 9.77951 0.267481 9.60119C0.0891604 9.41348 0 9.19293 0 8.93952V0.915069Z" fill="url(#paint9_linear_322_1092)"/>
<defs>
<linearGradient id="paint0_linear_322_1092" x1="81.0369" y1="4.84088" x2="-0.816329" y2="4.84088" gradientUnits="userSpaceOnUse">
<stop stop-color="#27E8B1"/>
<stop offset="0.775" stop-color="#693EB0"/>
</linearGradient>
<linearGradient id="paint1_linear_322_1092" x1="81.0365" y1="4.84088" x2="-0.816722" y2="4.84088" gradientUnits="userSpaceOnUse">
<stop stop-color="#27E8B1"/>
<stop offset="0.775" stop-color="#693EB0"/>
</linearGradient>
<linearGradient id="paint2_linear_322_1092" x1="81.0369" y1="4.84088" x2="-0.816308" y2="4.84088" gradientUnits="userSpaceOnUse">
<stop stop-color="#27E8B1"/>
<stop offset="0.775" stop-color="#693EB0"/>
</linearGradient>
<linearGradient id="paint3_linear_322_1092" x1="81.0369" y1="4.84088" x2="-0.816324" y2="4.84088" gradientUnits="userSpaceOnUse">
<stop stop-color="#27E8B1"/>
<stop offset="0.775" stop-color="#693EB0"/>
</linearGradient>
<linearGradient id="paint4_linear_322_1092" x1="81.0368" y1="4.84088" x2="-0.816432" y2="4.84088" gradientUnits="userSpaceOnUse">
<stop stop-color="#27E8B1"/>
<stop offset="0.775" stop-color="#693EB0"/>
</linearGradient>
<linearGradient id="paint5_linear_322_1092" x1="81.0363" y1="4.84082" x2="-0.816937" y2="4.84082" gradientUnits="userSpaceOnUse">
<stop stop-color="#27E8B1"/>
<stop offset="0.775" stop-color="#693EB0"/>
</linearGradient>
<linearGradient id="paint6_linear_322_1092" x1="81.037" y1="4.84088" x2="-0.816239" y2="4.84088" gradientUnits="userSpaceOnUse">
<stop stop-color="#27E8B1"/>
<stop offset="0.775" stop-color="#693EB0"/>
</linearGradient>
<linearGradient id="paint7_linear_322_1092" x1="81.0367" y1="4.84108" x2="-0.816563" y2="4.84108" gradientUnits="userSpaceOnUse">
<stop stop-color="#27E8B1"/>
<stop offset="0.775" stop-color="#693EB0"/>
</linearGradient>
<linearGradient id="paint8_linear_322_1092" x1="81.0368" y1="4.84108" x2="-0.816483" y2="4.84108" gradientUnits="userSpaceOnUse">
<stop stop-color="#27E8B1"/>
<stop offset="0.775" stop-color="#693EB0"/>
</linearGradient>
<linearGradient id="paint9_linear_322_1092" x1="81.0367" y1="4.84082" x2="-0.816531" y2="4.84082" gradientUnits="userSpaceOnUse">
<stop stop-color="#27E8B1"/>
<stop offset="0.775" stop-color="#693EB0"/>
</linearGradient>
</defs>
</svg>
